<svg width="22" height="22" viewBox="0 0 22 22" fill="none" xmlns="http://www.w3.org/2000/svg">
<path d="M10.946 5.44849C7.84058 5.44849 5.33569 7.95337 5.33569 11.0588C5.33569 14.1643 7.84058 16.6692 10.946 16.6692C14.0515 16.6692 16.5564 14.1643 16.5564 11.0588C16.5564 7.95337 14.0515 5.44849 10.946 5.44849ZM10.946 14.7063C8.93921 14.7063 7.29858 13.0706 7.29858 11.0588C7.29858 9.04712 8.93433 7.41138 10.946 7.41138C12.9578 7.41138 14.5935 9.04712 14.5935 11.0588C14.5935 13.0706 12.9529 14.7063 10.946 14.7063ZM18.0945 5.21899C18.0945 5.94653 17.5085 6.52759 16.7859 6.52759C16.0584 6.52759 15.4773 5.94165 15.4773 5.21899C15.4773 4.49634 16.0632 3.9104 16.7859 3.9104C17.5085 3.9104 18.0945 4.49634 18.0945 5.21899ZM21.8103 6.54712C21.7273 4.79419 21.3269 3.24146 20.0427 1.96216C18.7634 0.682861 17.2107 0.282471 15.4578 0.19458C13.6511 0.092041 8.23608 0.092041 6.42944 0.19458C4.6814 0.277588 3.12866 0.677978 1.84448 1.95728C0.560303 3.23657 0.164795 4.78931 0.0769043 6.54224C-0.0256348 8.34888 -0.0256348 13.7639 0.0769043 15.5706C0.159912 17.3235 0.560303 18.8762 1.84448 20.1555C3.12866 21.4348 4.67651 21.8352 6.42944 21.9231C8.23608 22.0256 13.6511 22.0256 15.4578 21.9231C17.2107 21.8401 18.7634 21.4397 20.0427 20.1555C21.322 18.8762 21.7224 17.3235 21.8103 15.5706C21.9128 13.7639 21.9128 8.35376 21.8103 6.54712ZM19.4763 17.509C19.0955 18.4661 18.3582 19.2034 17.3962 19.5891C15.9558 20.1604 12.5378 20.0286 10.946 20.0286C9.35425 20.0286 5.9314 20.1555 4.49585 19.5891C3.53882 19.2083 2.80151 18.4709 2.41577 17.509C1.84448 16.0686 1.97632 12.6506 1.97632 11.0588C1.97632 9.46704 1.84937 6.04419 2.41577 4.60864C2.79663 3.65161 3.53394 2.91431 4.49585 2.52856C5.93628 1.95728 9.35425 2.08911 10.946 2.08911C12.5378 2.08911 15.9607 1.96216 17.3962 2.52856C18.3533 2.90942 19.0906 3.64673 19.4763 4.60864C20.0476 6.04907 19.9158 9.46704 19.9158 11.0588C19.9158 12.6506 20.0476 16.0735 19.4763 17.509Z" fill="white"/>
</svg>
