<svg width="81" height="55" viewBox="0 0 81 55" fill="none" xmlns="http://www.w3.org/2000/svg">
<path d="M40.9592 29.8329C43.4591 30.3701 45.7785 31.2725 47.8339 32.4864L70.2636 26.7067C71.4303 26.4059 72.0552 25.4283 71.6664 24.5367L63.2778 5.07063C62.8889 4.16823 61.6251 3.6848 60.4723 3.9856L51.9866 6.17714L56.5836 16.8555L48.1534 19.0149L43.5563 8.33646L35.0011 10.5387C33.8345 10.8395 33.2095 11.8171 33.5984 12.7088L40.9592 29.8329ZM79.9855 35.0647L78.5689 31.7989C78.18 30.8965 76.9162 30.413 75.7634 30.7138L46.1118 38.3627C43.723 35.9993 40.0564 34.4523 35.9038 34.3879L22.0988 2.35269C21.4877 0.945371 19.7933 0 17.8767 0H2.32175C1.09957 0 0.0996094 0.773486 0.0996094 1.71886V5.15657C0.0996094 6.10194 1.09957 6.87543 2.32175 6.87543H14.6685L27.4736 36.6009C23.8487 38.7925 21.6821 42.3591 22.4738 46.3232C23.321 50.5559 27.7375 54.0903 33.2095 54.8315C41.5703 55.981 48.8061 51.093 48.9589 44.8837L78.5828 37.2347C79.7355 36.9339 80.3744 35.9671 79.9855 35.0647ZM35.6538 49.8469C31.9734 49.8469 28.9874 47.5371 28.9874 44.6903C28.9874 41.8434 31.9734 39.5337 35.6538 39.5337C39.3342 39.5337 42.3202 41.8434 42.3202 44.6903C42.3202 47.5371 39.3342 49.8469 35.6538 49.8469Z" fill="white"/>
</svg>
