<svg width="1356" height="105" viewBox="0 0 1356 105" fill="none" xmlns="http://www.w3.org/2000/svg">
<g clip-path="url(#clip0_179_951)">
<path d="M1355.81 38.9402C1340.88 41.3702 1325.96 43.9202 1311.01 46.2002C1269.57 52.5402 1228.17 59.1902 1186.65 64.9102C1146.76 70.4102 1106.79 75.4502 1066.75 79.6902C1021.73 84.4502 976.66 88.9602 931.5 91.9802C865.73 96.3702 799.87 99.4802 734.03 102.8C713.75 103.83 693.42 103.78 673.11 104.27C672.01 104.3 670.91 104.71 669.81 104.94H529.81C522.71 104.61 515.62 104.25 508.52 103.95C447.62 101.36 386.68 99.3802 325.82 96.0202C280.94 93.5402 236.13 89.5802 191.34 85.6602C159.67 82.8902 128.08 79.1102 96.4602 75.7402C95.2602 75.6102 94.0902 75.1102 92.9102 74.7802L93.0602 73.4402C95.8302 73.6502 98.6002 73.7902 101.37 74.0702C148.92 78.7602 196.43 83.8702 244.03 88.0602C331.66 95.7802 419.5 99.9202 507.45 101.9C584.91 103.65 662.38 103.41 739.8 100.53C792.06 98.5902 844.33 96.2202 896.49 92.5402C951.63 88.6502 1006.69 83.4602 1061.7 77.9902C1148.2 69.3902 1234.19 56.9502 1319.94 42.7702C1331.9 40.7902 1343.87 38.8802 1355.83 36.9302V38.9302L1355.81 38.9402Z" fill="black"/>
<path d="M31.3902 44.17C36.0202 46.57 38.3102 45.06 40.2402 41.27C42.9702 35.94 46.1902 30.86 49.3102 25.75C53.1702 19.43 58.7001 16.99 65.8502 18.25C69.4602 18.88 73.0602 19.55 76.6702 20.1C80.2001 20.64 81.9902 21.93 80.9702 26.08C79.3202 32.83 78.2301 39.72 76.7802 47.21C80.8902 47.91 84.7502 48.61 88.6301 49.2C92.1601 49.74 93.4101 51.47 92.5302 55.08C91.2001 60.58 90.2301 66.16 89.0302 71.69C88.7902 72.78 88.1101 74.76 87.8401 74.72C82.6002 74.02 81.3801 79.71 77.4501 81.09C71.5501 83.16 67.1002 80.11 65.2902 72.26C62.7802 71.8 60.1902 71.11 57.5602 70.95C56.1202 70.86 54.1602 71.22 53.2302 72.17C49.1102 76.38 44.4002 77.44 39.1102 75.19C34.1702 73.09 32.5102 69.02 33.1602 61.38C31.6502 61.09 30.0902 60.79 28.2002 60.42C27.4702 65.22 24.5402 65.28 20.7902 64.45C15.5902 63.31 10.2702 62.74 5.07016 61.63C2.93016 61.18 -0.809845 61.77 0.130155 57.89C0.350155 56.97 3.98015 56.28 5.93015 56.5C11.3302 57.1 16.6802 58.24 22.4002 59.22C25.6002 43.26 28.6902 27.79 31.8002 12.31C32.3902 9.36998 32.6902 6.31998 33.7202 3.54998C34.2602 2.10998 36.1102 1.15998 37.3602 -0.0200195C37.9202 1.47998 39.1902 3.11998 38.9402 4.46998C36.8602 15.93 34.5102 27.34 32.2502 38.76C31.9002 40.53 31.6602 42.33 31.3602 44.14L31.3902 44.17ZM86.8401 54.42C80.0101 53.2 73.6802 52.02 67.3202 50.98C65.4101 50.67 63.1002 50.08 61.5302 50.81C55.7002 53.54 49.9102 54.11 43.7302 52.3C42.8802 52.05 41.5702 53.37 40.4802 53.96C40.6802 54.43 40.8902 54.89 41.0902 55.36C46.0102 54.77 51.2302 55.32 53.2402 59.93C55.5502 65.24 59.4302 66.2 64.0802 66.57C66.4902 66.76 68.9602 66.19 71.3602 66.43C74.3302 66.73 77.2902 67.41 80.1802 68.16C81.2701 68.44 82.1702 69.41 83.6301 70.37C84.7601 64.76 85.7402 59.91 86.8502 54.4L86.8401 54.42ZM74.5502 25.31C70.9002 24.65 67.1802 23.46 63.4602 23.48C60.9102 23.49 57.3302 24.45 56.0202 26.28C51.4502 32.65 47.6602 39.59 43.4802 46.47C51.5602 48.93 58.1402 48.99 62.5802 41.1C63.5302 39.4 65.7701 38.2 67.6802 37.31C74.0901 34.32 74.9202 33.08 74.5502 25.32V25.31ZM45.3902 59.83C44.6302 59.83 43.8802 59.83 43.1202 59.83C41.6502 61.82 39.3002 63.65 38.9102 65.83C38.3202 69.14 40.9102 70.94 44.1802 70.97C47.4702 71 50.0402 69.13 49.5602 65.9C49.2402 63.72 46.8502 61.84 45.3802 59.83H45.3902ZM30.1902 49.71C29.7602 51.83 29.4802 53.21 29.1402 54.89C31.1202 55.3 32.6802 55.62 34.5502 56.01C34.9102 54.26 35.2002 52.86 35.5602 51.13C33.8002 50.66 32.2502 50.25 30.1902 49.71Z" fill="black"/>
</g>
<defs>
<clipPath id="clip0_179_951">
<rect width="1355.81" height="104.94" fill="white"/>
</clipPath>
</defs>
</svg>
