<svg width="1356" height="100" viewBox="0 0 1356 100" fill="none" xmlns="http://www.w3.org/2000/svg">
<g clip-path="url(#clip0_170_948)">
<path d="M0 98.14C53.01 87.5 105.87 75.99 159.08 66.47C208.38 57.66 257.93 49.98 307.6 43.63C362.09 36.66 416.78 31.03 471.5 26.14C580.11 16.43 689 12.68 798.01 14.52C855.46 15.49 912.91 17.95 970.27 21.16C1016.81 23.76 1063.33 27.62 1109.69 32.5C1160.01 37.79 1210.13 44.9 1260.34 51.25C1261.21 51.36 1262.03 51.83 1262.78 53.3C1261.32 53.23 1259.85 53.25 1258.4 53.06C1218.62 47.91 1178.88 42.36 1139.04 37.7C1107.29 33.98 1075.46 30.78 1043.59 28.35C999.58 25 955.54 21.62 911.44 20.04C851.18 17.89 790.86 16.57 730.57 16.52C683.28 16.48 635.95 18.14 588.7 20.43C542.63 22.66 496.58 25.98 450.63 30.04C405.85 34 361.12 38.74 316.54 44.52C269.67 50.6 222.83 57.3 176.3 65.58C119.14 75.75 62.32 87.83 5.35 99.08" fill="black"/>
<path d="M1286.58 32.14C1287.83 24.6 1289.03 17.73 1290.07 10.84C1290.59 7.42 1291.94 5.76 1295.74 6.61C1299.3 7.4 1302.97 7.7 1306.6 8.2C1314.56 9.3 1318.7 13.27 1320.16 21.2C1321.48 28.38 1322.82 35.56 1324.17 42.9C1326.3 43.22 1328.2 43.51 1330.48 43.85C1332.68 30.75 1334.82 17.99 1336.95 5.23C1337.09 4.41 1336.91 3.33 1337.38 2.81C1338.35 1.72 1339.65 0.92 1340.81 0C1341.51 1.29 1342.95 2.67 1342.8 3.85C1341.96 10.45 1340.73 17 1339.63 23.56C1337.81 34.39 1335.97 45.21 1334.18 56.04C1333.97 57.32 1334.01 58.65 1333.91 60.46C1339.77 61.36 1345.51 62.06 1351.14 63.23C1352.64 63.54 1353.84 65.31 1355.18 66.4C1353.69 67.04 1352.14 68.34 1350.72 68.2C1344.6 67.61 1338.53 66.49 1332.41 65.77C1328.88 65.35 1326.53 64.22 1327.9 59.73C1325.85 59.45 1324.28 59.24 1322.78 59.04C1319.98 67.4 1316.65 70.41 1310.53 70.34C1305.73 70.28 1302.34 68.03 1300.18 63.78C1297.84 59.17 1289.93 58.57 1286.41 62.04C1284.4 64.02 1280.81 65.95 1278.37 65.51C1275.7 65.02 1273.45 61.85 1271.2 59.66C1270.48 58.96 1270.47 56.86 1269.91 56.77C1264.23 55.83 1266.1 52.06 1266.66 48.72C1267.43 44.13 1268.4 39.55 1268.85 34.93C1269.27 30.62 1271.38 29.66 1275.26 30.45C1278.82 31.18 1282.46 31.55 1286.57 32.16L1286.58 32.14ZM1317.62 51.11C1317.9 50.68 1318.17 50.25 1318.45 49.81C1317.35 48.91 1316.39 47.62 1315.13 47.17C1311.61 45.94 1307.03 46.09 1304.54 43.84C1295.67 35.82 1284.66 38.56 1274.48 35.72C1273.56 41.46 1272.79 46.28 1272.03 51.09C1276.24 51.09 1279.96 50.58 1283.49 51.21C1288.24 52.07 1292.8 53.91 1297.5 55.08C1298.56 55.34 1300.36 54.97 1301 54.2C1305.69 48.56 1311.27 48.07 1317.63 51.09L1317.62 51.11ZM1296.01 12.04C1294.5 17.66 1292.27 22.78 1299.13 26.28C1300.74 27.1 1301.75 29.69 1302.43 31.67C1305.12 39.61 1309.5 42.44 1318.09 41.28C1316.82 34.41 1315.97 27.43 1314.09 20.75C1313.37 18.17 1310.72 15.28 1308.24 14.26C1304.53 12.73 1300.19 12.72 1296.02 12.05L1296.01 12.04ZM1310.53 52.43C1308.02 55.81 1305.55 57.68 1305.28 59.83C1304.84 63.25 1307.55 65.19 1310.98 65.02C1314.15 64.86 1316.68 62.9 1315.97 59.67C1315.49 57.49 1313.12 55.73 1310.53 52.43ZM1324.24 48.38C1323.92 50.17 1323.65 51.71 1323.31 53.65C1325.33 53.86 1326.9 54.03 1328.76 54.22C1329 52.5 1329.19 51.09 1329.42 49.43C1327.64 49.07 1326.1 48.76 1324.23 48.38H1324.24Z" fill="black"/>
</g>
<defs>
<clipPath id="clip0_170_948">
<rect width="1355.18" height="99.08" fill="white"/>
</clipPath>
</defs>
</svg>
