<svg width="134" height="235" viewBox="0 0 134 235" fill="none" xmlns="http://www.w3.org/2000/svg">
<g clip-path="url(#clip0_111_703)">
<path d="M134 214.536V0C105.69 28.2332 79.4117 40.1683 60.9382 45.8684C32.1483 54.7775 1.62257 54.2005 0.0701719 64.7703C-1.05884 72.3986 13.0256 84.9389 14.9591 86.3604C17.3864 88.1479 19.715 89.4849 19.715 89.4849C19.8844 89.5835 20.209 89.7664 20.717 90.062C21.2957 90.3857 22.1989 90.9205 23.963 91.9761C32.981 97.3807 40.6018 101.927 46.0634 106.599C50.6077 110.484 60.0491 118.563 62.293 130.892C64.2406 141.588 59.8657 150.483 56.8879 156.521C47.0372 176.521 30.483 185.275 32.5294 188.906C33.2068 190.117 35.9729 190.75 45.0897 188.245C49.9727 186.274 55.4202 187.752 58.2427 191.609C61.7144 196.352 59.3153 202.08 59.2024 202.319C52.3295 220.152 56.3092 227.006 58.2427 229.384C67.2466 240.489 97.3489 234.958 134 214.536Z" fill="#AB3F3F"/>
</g>
<defs>
<clipPath id="clip0_111_703">
<rect width="134" height="235" fill="white"/>
</clipPath>
</defs>
</svg>
