<svg width="103" height="241" viewBox="0 0 103 241" fill="none" xmlns="http://www.w3.org/2000/svg">
<path fill-rule="evenodd" clip-rule="evenodd" d="M9.93026e-06 124.011L1.87553e-05 20.9111C36.9242 0.0537113 67.2512 -5.59548 76.3223 5.74602C78.2702 8.17531 82.2796 15.1757 75.3555 33.3882C75.2417 33.6326 72.8247 39.483 76.3223 44.3272C79.1659 48.2658 84.654 49.7752 89.5735 47.7627C98.7583 45.2041 101.545 45.8509 102.228 47.0871C103.106 48.6674 100.582 51.1976 96.6281 55.1616C91.3026 60.5005 83.3827 68.4403 77.6872 80.1629C74.6872 86.3296 70.2796 95.4143 72.2417 106.339C73.566 113.715 77.3787 119.602 81.2302 124.011H9.93026e-06ZM9.60426e-10 240.011L0 240.022C0.00369798 240.018 0.00739592 240.014 0.0110938 240.011H9.60426e-10Z" fill="#AB3F3F"/>
</svg>
