<svg width="26" height="21" viewBox="0 0 26 21" fill="none" xmlns="http://www.w3.org/2000/svg">
<path d="M22.7075 5.75557C22.7234 5.97764 22.7234 6.19976 22.7234 6.42183C22.7234 13.1953 17.568 20.9999 8.14536 20.9999C5.24243 20.9999 2.54575 20.1591 0.277344 18.6998C0.689795 18.7473 1.08633 18.7632 1.51465 18.7632C3.90991 18.7632 6.11489 17.9542 7.87568 16.5741C5.62314 16.5265 3.73545 15.0513 3.08506 13.0208C3.40234 13.0684 3.71958 13.1001 4.05273 13.1001C4.51274 13.1001 4.9728 13.0366 5.40107 12.9256C3.05337 12.4497 1.29253 10.3875 1.29253 7.89707V7.83364C1.97461 8.21435 2.76782 8.45229 3.6085 8.48398C2.22842 7.56392 1.32427 5.99351 1.32427 4.21685C1.32427 3.26509 1.57803 2.39263 2.02222 1.6312C4.54443 4.74033 8.33569 6.77075 12.5869 6.99287C12.5076 6.61216 12.46 6.21563 12.46 5.81904C12.46 2.99541 14.7443 0.695312 17.5837 0.695312C19.059 0.695312 20.3915 1.31396 21.3274 2.31333C22.4854 2.09126 23.5958 1.66294 24.5793 1.07603C24.1985 2.26577 23.3896 3.26514 22.3268 3.89961C23.3579 3.78862 24.3572 3.50303 25.2772 3.10649C24.5794 4.12168 23.7069 5.02583 22.7075 5.75557Z" fill="white"/>
</svg>
